<?xml version="1.0" encoding="iso-8859-1"?>
<!-- Uploaded to: SVG Repo, www.svgrepo.com, Generator: SVG Repo Mixer Tools -->
<svg fill="#000000" height="800px" width="800px" version="1.1" id="Layer_1" xmlns="http://www.w3.org/2000/svg" xmlns:xlink="http://www.w3.org/1999/xlink" 
	 viewBox="0 0 511.999 511.999" xml:space="preserve">
<g>
	<g>
		<path d="M340.216,223.586c-16.388-36.632-24.698-75.554-24.698-115.685V63.435h2.778c4.531,0,8.203-3.673,8.203-8.203V23.168
			C326.499,10.394,316.106,0,303.332,0h-94.664c-12.775,0-23.168,10.394-23.168,23.168v32.065c0,4.53,3.673,8.203,8.203,8.203h2.779
			v44.466c0,40.131-8.31,79.053-24.699,115.685c-17.338,38.754-26.129,79.93-26.129,122.385v136.846
			c0,16.092,13.092,29.183,29.182,29.183h162.327c16.092,0,29.184-13.092,29.184-29.183V345.971
			C366.346,303.516,357.555,262.34,340.216,223.586z M201.904,23.168c0-3.728,3.034-6.762,6.762-6.762h94.664
			c3.728,0,6.762,3.034,6.762,6.762V47.03H201.904V23.168z M299.112,101.716v6.186c0,14.51,1.052,28.865,3.096,43.031h-92.419
			c2.044-14.166,3.096-28.521,3.096-43.031v-6.186H299.112z M212.886,85.31V63.435h86.226V85.31H212.886z M349.94,482.818
			c0,7.046-5.732,12.777-12.778,12.777H174.835c-7.045,0-12.777-5.732-12.777-12.777V345.972c0-40.131,8.31-79.053,24.699-115.685
			c9.112-20.367,15.838-41.408,20.193-62.948h98.096c4.355,21.54,11.083,42.581,20.194,62.948
			c16.388,36.632,24.698,75.554,24.698,115.685V482.818z"/>
	</g>
</g>
<g>
	<g>
		<path d="M326.726,294.159c-44.95-19.585-96.506-19.585-141.455,0c-3.275,1.427-5.25,4.809-4.882,8.363l15.105,146.197
			c0.432,4.181,3.956,7.36,8.159,7.36h104.69c4.204,0,7.727-3.178,8.159-7.36l15.105-146.197
			C331.976,298.968,330.001,295.585,326.726,294.159z M300.945,439.674h-89.892L197.336,306.92
			c37.601-14.731,79.724-14.732,117.325,0.001L300.945,439.674z"/>
	</g>
</g>
</svg>