<?xml version="1.0" encoding="iso-8859-1"?>
<!-- Uploaded to: SVG Repo, www.svgrepo.com, Generator: SVG Repo Mixer Tools -->
<svg fill="#000000" height="800px" width="800px" version="1.1" id="Layer_1" xmlns="http://www.w3.org/2000/svg" xmlns:xlink="http://www.w3.org/1999/xlink" 
	 viewBox="0 0 512 512" xml:space="preserve">
<g>
	<g>
		<path d="M356.141,0.048c-59.341,0-107.659,43.811-115.643,100.126h-68.009V50.087C172.489,22.469,150.02,0,122.402,0H55.62
			c-9.22,0-16.696,7.475-16.696,16.696s7.475,16.696,16.696,16.696h66.783c9.206,0,16.696,7.49,16.696,16.696v50.087H89.011
			c-4.684,0-9.151,1.967-12.314,5.42c-3.162,3.454-4.729,8.077-4.318,12.742c1.473,16.689,32.001,362.684,33.391,378.435
			c0.76,8.618,7.978,15.229,16.631,15.229H322.75c8.652,0,15.871-6.609,16.631-15.229c1.008-11.423,22.234-251.982,23.228-263.258
			c28.581-1.558,55.667-13.501,76.171-34.006C512.26,126.028,459.765,0.048,356.141,0.048z M286.492,70.831l29.343,29.343h-41.464
			C276.482,89.675,280.586,79.743,286.492,70.831z M307.462,478.609H137.69l-2.946-33.391h175.665L307.462,478.609z
			 M313.355,411.826H131.796L118.913,265.82c16.607,1.467,33.621-1.591,48.969-9.266c16.234-8.115,35.616-8.115,51.85,0
			c25.583,12.793,56.132,12.791,81.716,0c8.164-4.082,17.132-6.136,26.145-6.105L313.355,411.826z M330.962,212.28
			c-0.243,0.908-0.427,1.843-0.514,2.812c-0.061,0.682-0.068,1.356-0.048,2.022c-15.102-0.497-30.208,2.737-43.884,9.577
			c-16.234,8.115-35.616,8.115-51.85,0c-25.583-12.791-56.132-12.792-81.715-0.001c-11.496,5.749-24.575,7.45-37.047,5.023
			l-8.659-98.147h230.663L330.962,212.28z M356.141,93.257L310.104,47.22c13.522-8.962,29.399-13.781,46.038-13.781
			c16.638,0,32.514,4.818,46.039,13.781L356.141,93.257z M365.587,199.768l4.042-45.801l32.54,32.54
			C391.202,193.755,378.683,198.294,365.587,199.768z M425.787,162.904l-46.035-46.034l46.036-46.034
			C444.174,98.636,444.174,135.103,425.787,162.904z"/>
	</g>
</g>
<g>
	<g>
		<circle cx="178.053" cy="306.087" r="16.696"/>
	</g>
</g>
<g>
	<g>
		<circle cx="267.097" cy="361.739" r="16.696"/>
	</g>
</g>
</svg>