<svg width="25" height="25" viewBox="0 0 25 25" fill="none" xmlns="http://www.w3.org/2000/svg">
<path fill-rule="evenodd" clip-rule="evenodd" d="M8.5219 2.67247C8.23336 3.17913 7.97298 3.80675 7.72511 4.54696C5.81047 9.73384 2.84881 17.3173 1.41912 20.9584C0.769836 22.6118 2.35137 24.267 4.03258 23.6943C7.6959 22.4463 15.2736 19.8822 20.4535 18.2494L20.4693 18.2443C21.2125 17.9969 21.8396 17.743 22.3429 17.4626C22.841 17.1851 23.2867 16.8442 23.5861 16.3903C24.2696 15.3548 23.8908 14.2706 23.4389 13.4327C20.5951 8.16084 17.0402 4.45574 12.6009 1.63574C12.177 1.36646 11.7023 1.13779 11.1895 1.06549C10.6398 0.988007 10.1001 1.09863 9.61436 1.41988C9.15964 1.72065 8.80934 2.16775 8.5219 2.67247ZM15.7201 9.47034C14.0735 7.71335 12.2806 6.22863 9.9535 4.51304C10.0852 4.18236 10.2114 3.91565 10.3322 3.70347C10.5329 3.35109 10.685 3.20955 10.7636 3.1575C10.8114 3.12595 10.836 3.11961 10.8986 3.12842C10.9979 3.14243 11.1832 3.20332 11.4839 3.39427C15.6189 6.02102 18.9286 9.45972 21.6053 14.4218C21.9781 15.113 21.8577 15.2326 21.8479 15.2422C21.8046 15.3077 21.676 15.4493 21.329 15.6427C21.1315 15.7527 20.8846 15.868 20.5791 15.9897C18.8517 13.2431 17.3722 11.2332 15.7201 9.47034ZM14.1999 10.8949C15.6471 12.4391 16.9773 14.2138 18.5441 16.6701C13.4385 18.3038 6.73129 20.574 3.36074 21.7222L3.35905 21.7227L3.3577 21.7214L3.3583 21.7198C4.67395 18.3693 7.29489 11.6598 9.20321 6.55081C11.2374 8.07296 12.7853 9.38541 14.1999 10.8949ZM10.4168 13.5417C11.5674 13.5417 12.5001 12.609 12.5001 11.4583C12.5001 10.3078 11.5674 9.37504 10.4168 9.37504C9.26618 9.37504 8.33344 10.3078 8.33344 11.4583C8.33344 12.609 9.26618 13.5417 10.4168 13.5417ZM10.4168 16.6667C10.4168 17.8173 9.48403 18.75 8.33344 18.75C7.18285 18.75 6.25011 17.8173 6.25011 16.6667C6.25011 15.5161 7.18285 14.5833 8.33344 14.5833C9.48403 14.5833 10.4168 15.5161 10.4168 16.6667ZM13.5418 17.7083C14.6924 17.7083 15.6251 16.7756 15.6251 15.625C15.6251 14.4744 14.6924 13.5417 13.5418 13.5417C12.3911 13.5417 11.4584 14.4744 11.4584 15.625C11.4584 16.7756 12.3911 17.7083 13.5418 17.7083Z" fill="white"/>
</svg>
